<svg width="56" height="56" viewBox="0 0 56 56" fill="none" xmlns="http://www.w3.org/2000/svg">
<circle cx="28" cy="28" r="28" fill="#F4FBFF"/>
<path d="M40.7076 26.2925L28.7076 14.2925C28.6147 14.1995 28.5044 14.1258 28.383 14.0754C28.2616 14.0251 28.1315 13.9992 28.0001 13.9992C27.8686 13.9992 27.7385 14.0251 27.6171 14.0754C27.4957 14.1258 27.3854 14.1995 27.2926 14.2925L15.2926 26.2925C15.1525 26.4323 15.0572 26.6106 15.0185 26.8047C14.9799 26.9988 14.9997 27.2 15.0754 27.3828C15.1512 27.5656 15.2795 27.7218 15.4441 27.8317C15.6087 27.9416 15.8022 28.0001 16.0001 28H21.0001V31C21.0001 31.2652 21.1054 31.5196 21.2929 31.7071C21.4805 31.8946 21.7348 32 22.0001 32H34.0001C34.2653 32 34.5196 31.8946 34.7072 31.7071C34.8947 31.5196 35.0001 31.2652 35.0001 31V28H40.0001C40.198 28.0001 40.3914 27.9416 40.556 27.8317C40.7206 27.7218 40.8489 27.5656 40.9247 27.3828C41.0004 27.2 41.0202 26.9988 40.9816 26.8047C40.9429 26.6106 40.8476 26.4323 40.7076 26.2925ZM34.0001 26C33.7348 26 33.4805 26.1054 33.2929 26.2929C33.1054 26.4804 33.0001 26.7348 33.0001 27V30H23.0001V27C23.0001 26.7348 22.8947 26.4804 22.7072 26.2929C22.5196 26.1054 22.2653 26 22.0001 26H18.4138L28.0001 16.4137L37.5863 26H34.0001ZM35.0001 39C35.0001 39.2652 34.8947 39.5196 34.7072 39.7071C34.5196 39.8946 34.2653 40 34.0001 40H22.0001C21.7348 40 21.4805 39.8946 21.2929 39.7071C21.1054 39.5196 21.0001 39.2652 21.0001 39C21.0001 38.7348 21.1054 38.4804 21.2929 38.2929C21.4805 38.1053 21.7348 38 22.0001 38H34.0001C34.2653 38 34.5196 38.1053 34.7072 38.2929C34.8947 38.4804 35.0001 38.7348 35.0001 39ZM35.0001 35C35.0001 35.2652 34.8947 35.5196 34.7072 35.7071C34.5196 35.8946 34.2653 36 34.0001 36H22.0001C21.7348 36 21.4805 35.8946 21.2929 35.7071C21.1054 35.5196 21.0001 35.2652 21.0001 35C21.0001 34.7348 21.1054 34.4804 21.2929 34.2929C21.4805 34.1053 21.7348 34 22.0001 34H34.0001C34.2653 34 34.5196 34.1053 34.7072 34.2929C34.8947 34.4804 35.0001 34.7348 35.0001 35Z" fill="#0053F4"/>
</svg>
