<svg width="56" height="56" viewBox="0 0 56 56" fill="none" xmlns="http://www.w3.org/2000/svg">
<circle cx="28" cy="28" r="28" fill="#F4FBFF"/>
<path d="M39 17H17C16.4696 17 15.9609 17.2107 15.5858 17.5858C15.2107 17.9609 15 18.4696 15 19V36C15 36.5304 15.2107 37.0391 15.5858 37.4142C15.9609 37.7893 16.4696 38 17 38H19V40C19 40.2652 19.1054 40.5196 19.2929 40.7071C19.4804 40.8946 19.7348 41 20 41C20.2652 41 20.5196 40.8946 20.7071 40.7071C20.8946 40.5196 21 40.2652 21 40V38H35V40C35 40.2652 35.1054 40.5196 35.2929 40.7071C35.4804 40.8946 35.7348 41 36 41C36.2652 41 36.5196 40.8946 36.7071 40.7071C36.8946 40.5196 37 40.2652 37 40V38H39C39.5304 38 40.0391 37.7893 40.4142 37.4142C40.7893 37.0391 41 36.5304 41 36V19C41 18.4696 40.7893 17.9609 40.4142 17.5858C40.0391 17.2107 39.5304 17 39 17ZM39 36H17V19H39V27H36.915C36.6643 25.5166 35.8654 24.1815 34.6767 23.2594C33.4881 22.3372 31.9963 21.8952 30.4972 22.021C28.998 22.1468 27.6008 22.8312 26.5824 23.9386C25.5641 25.046 24.9989 26.4956 24.9989 28C24.9989 29.5044 25.5641 30.954 26.5824 32.0614C27.6008 33.1688 28.998 33.8532 30.4972 33.979C31.9963 34.1048 33.4881 33.6628 34.6767 32.7406C35.8654 31.8185 36.6643 30.4834 36.915 29H39V36ZM32.73 27C32.5099 26.6187 32.1701 26.3207 31.7633 26.1522C31.3566 25.9838 30.9056 25.9542 30.4803 26.0681C30.055 26.1821 29.6793 26.4332 29.4112 26.7825C29.1432 27.1318 28.9979 27.5597 28.9979 28C28.9979 28.4403 29.1432 28.8682 29.4112 29.2175C29.6793 29.5668 30.055 29.8179 30.4803 29.9319C30.9056 30.0458 31.3566 30.0162 31.7633 29.8478C32.1701 29.6793 32.5099 29.3813 32.73 29H34.875C34.6316 29.9427 34.0528 30.7642 33.247 31.3106C32.4412 31.857 31.4638 32.0908 30.498 31.9681C29.5322 31.8454 28.6443 31.3747 28.0007 30.6442C27.3571 29.9137 27.002 28.9736 27.002 28C27.002 27.0264 27.3571 26.0863 28.0007 25.3558C28.6443 24.6253 29.5322 24.1546 30.498 24.0319C31.4638 23.9092 32.4412 24.143 33.247 24.6894C34.0528 25.2358 34.6316 26.0573 34.875 27H32.73Z" fill="#0053F4"/>
</svg>
