<svg width="56" height="56" viewBox="0 0 56 56" fill="none" xmlns="http://www.w3.org/2000/svg">
<circle cx="28" cy="28" r="28" fill="#F4FBFF"/>
<path d="M39 23H33V17C33 16.4696 32.7893 15.9609 32.4142 15.5858C32.0391 15.2107 31.5304 15 31 15H25C24.4696 15 23.9609 15.2107 23.5858 15.5858C23.2107 15.9609 23 16.4696 23 17V23H17C16.4696 23 15.9609 23.2107 15.5858 23.5858C15.2107 23.9609 15 24.4696 15 25V31C15 31.5304 15.2107 32.0391 15.5858 32.4142C15.9609 32.7893 16.4696 33 17 33H23V39C23 39.5304 23.2107 40.0391 23.5858 40.4142C23.9609 40.7893 24.4696 41 25 41H31C31.5304 41 32.0391 40.7893 32.4142 40.4142C32.7893 40.0391 33 39.5304 33 39V33H39C39.5304 33 40.0391 32.7893 40.4142 32.4142C40.7893 32.0391 41 31.5304 41 31V25C41 24.4696 40.7893 23.9609 40.4142 23.5858C40.0391 23.2107 39.5304 23 39 23ZM39 31H32C31.7348 31 31.4804 31.1054 31.2929 31.2929C31.1054 31.4804 31 31.7348 31 32V39H25V32C25 31.7348 24.8946 31.4804 24.7071 31.2929C24.5196 31.1054 24.2652 31 24 31H17V25H24C24.2652 25 24.5196 24.8946 24.7071 24.7071C24.8946 24.5196 25 24.2652 25 24V17H31V24C31 24.2652 31.1054 24.5196 31.2929 24.7071C31.4804 24.8946 31.7348 25 32 25H39V31Z" fill="#0053F4"/>
</svg>
