<svg width="48" height="48" viewBox="0 0 48 48" fill="none" xmlns="http://www.w3.org/2000/svg">
<g clip-path="url(#clip0_1_1500)">
<path d="M0.666626 6.89234C0.666626 5.39081 1.19217 4.15207 2.2432 3.17612C3.29424 2.20013 4.66063 1.71216 6.3423 1.71216C7.99397 1.71216 9.33027 2.19261 10.3513 3.1536C11.4023 4.14459 11.9279 5.43585 11.9279 7.02747C11.9279 8.46891 11.4174 9.67009 10.3964 10.6311C9.34532 11.6221 7.96392 12.1176 6.25221 12.1176H6.20717C4.5555 12.1176 3.21919 11.6221 2.19816 10.6311C1.17712 9.64009 0.666626 8.39382 0.666626 6.89234ZM1.25221 46.3067V16.2167H11.2522V46.3067H1.25221ZM16.7928 46.3067H26.7928V29.5049C26.7928 28.4539 26.9129 27.6431 27.1531 27.0725C27.5735 26.0515 28.2117 25.1881 29.0675 24.4824C29.9234 23.7767 30.9969 23.4239 32.2882 23.4239C35.6516 23.4239 37.3333 25.6911 37.3333 30.2257V46.3067H47.3333V29.0545C47.3333 24.61 46.2823 21.2392 44.1801 18.9419C42.078 16.6446 39.3003 15.4959 35.8468 15.4959C31.9729 15.4959 28.9549 17.1626 26.7928 20.4959V20.586H26.7477L26.7928 20.4959V16.2167H16.7928C16.8528 17.1776 16.8828 20.1656 16.8828 25.1806C16.8828 30.1956 16.8528 37.2376 16.7928 46.3067Z" fill="white"/>
</g>
<defs>
<clipPath id="clip0_1_1500">
<rect width="46.6667" height="46.6667" fill="white" transform="translate(0.666626 0.666748)"/>
</clipPath>
</defs>
</svg>
