<svg width="33" height="32" viewBox="0 0 33 32" fill="none" xmlns="http://www.w3.org/2000/svg">
<path d="M3.5 9.61011H9.89V18.3701H3.5C3.23478 18.3701 2.98043 18.2648 2.79289 18.0772C2.60536 17.8897 2.5 17.6353 2.5 17.3701V10.6101C2.5 10.3449 2.60536 10.0905 2.79289 9.903C2.98043 9.71546 3.23478 9.61011 3.5 9.61011Z" fill="#7E8139"/>
<path d="M20.3299 22.1001L9.88995 18.3601V9.61012L20.3299 5.87012C20.4809 5.81554 20.6428 5.79811 20.802 5.8193C20.9611 5.84049 21.1128 5.89969 21.2442 5.99189C21.3757 6.08409 21.483 6.20657 21.5571 6.34899C21.6312 6.49141 21.6699 6.64958 21.6699 6.81012V21.1601C21.6699 21.3207 21.6312 21.4788 21.5571 21.6213C21.483 21.7637 21.3757 21.8862 21.2442 21.9784C21.1128 22.0706 20.9611 22.1297 20.802 22.1509C20.6428 22.1721 20.4809 22.1547 20.3299 22.1001ZM4.56995 18.3601H8.77995V25.6001C8.77995 25.8653 8.67459 26.1197 8.48705 26.3072C8.29952 26.4948 8.04516 26.6001 7.77995 26.6001H5.56995C5.30473 26.6001 5.05038 26.4948 4.86284 26.3072C4.6753 26.1197 4.56995 25.8653 4.56995 25.6001V18.3601Z" fill="white"/>
<path d="M21.67 17.7603C22.1821 17.7867 22.6942 17.7086 23.1752 17.5308C23.6561 17.353 24.0959 17.0792 24.4676 16.726C24.8394 16.3729 25.1355 15.9478 25.3378 15.4767C25.5401 15.0055 25.6444 14.4981 25.6444 13.9853C25.6444 13.4726 25.5401 12.9652 25.3378 12.494C25.1355 12.0228 24.8394 11.5977 24.4676 11.2446C24.0959 10.8915 23.6561 10.6177 23.1752 10.4399C22.6942 10.2621 22.1821 10.184 21.67 10.2103" fill="#7E8139"/>
<path d="M26.21 13.7802C26.2058 12.7092 25.8232 11.6741 25.1296 10.858C24.4361 10.0418 23.4763 9.49713 22.42 9.32021V6.60021C22.419 6.31914 22.3503 6.04244 22.2198 5.79353C22.0892 5.54462 21.9007 5.33082 21.67 5.17021C21.4392 5.01364 21.1735 4.91623 20.8962 4.88659C20.619 4.85694 20.3386 4.89596 20.08 5.00021L9.76 8.65021H3.5C3.03587 8.65021 2.59075 8.83458 2.26256 9.16277C1.93437 9.49096 1.75 9.93608 1.75 10.4002V17.1502C1.75 17.6143 1.93437 18.0595 2.26256 18.3876C2.59075 18.7158 3.03587 18.9002 3.5 18.9002H3.82V25.4002C3.82 25.8643 4.00437 26.3095 4.33256 26.6376C4.66075 26.9658 5.10587 27.1502 5.57 27.1502H7.78C8.23809 27.1398 8.67406 26.9512 8.99525 26.6244C9.31643 26.2976 9.49751 25.8584 9.5 25.4002V18.9002H9.73L20.05 22.6002C20.2405 22.6629 20.4394 22.6967 20.64 22.7002C20.9985 22.7004 21.3482 22.5885 21.64 22.3802C21.8694 22.2278 22.0597 22.0234 22.1952 21.7836C22.3307 21.5438 22.4078 21.2754 22.42 21.0002V18.2302C23.4755 18.0554 24.4351 17.5128 25.1288 16.6983C25.8224 15.8838 26.2055 14.8501 26.21 13.7802ZM3.21 17.1502V10.4002C3.20953 10.3637 3.21705 10.3276 3.23204 10.2943C3.24702 10.261 3.26911 10.2315 3.29674 10.2076C3.32438 10.1838 3.3569 10.1663 3.39201 10.1564C3.42712 10.1465 3.46398 10.1444 3.5 10.1502H9.14V17.4002H3.5C3.4337 17.4002 3.37011 17.3739 3.32322 17.327C3.27634 17.2801 3.25 17.2165 3.25 17.1502H3.21ZM8.03 25.4002C8.02753 25.4657 8.00039 25.5279 7.95403 25.5742C7.90767 25.6206 7.84551 25.6477 7.78 25.6502H5.57C5.5037 25.6502 5.44011 25.6239 5.39322 25.577C5.34634 25.5301 5.32 25.4665 5.32 25.4002V18.9002H8.03V25.4002ZM20.92 21.0002C20.9207 21.0402 20.9109 21.0797 20.8916 21.1148C20.8723 21.1499 20.8442 21.1793 20.81 21.2002C20.7747 21.2195 20.7352 21.2296 20.695 21.2296C20.6548 21.2296 20.6153 21.2195 20.58 21.2002L10.64 17.6502V9.92021L20.58 6.37021C20.6153 6.35095 20.6548 6.34086 20.695 6.34086C20.7352 6.34086 20.7747 6.35095 20.81 6.37021C20.8435 6.39179 20.8711 6.42138 20.8903 6.45629C20.9095 6.49121 20.9197 6.53036 20.92 6.57021V21.0002ZM22.42 16.7502V10.8502C23.0828 11.0013 23.6746 11.3729 24.0986 11.9044C24.5225 12.4358 24.7534 13.0954 24.7534 13.7752C24.7534 14.455 24.5225 15.1146 24.0986 15.6461C23.6746 16.1775 23.0828 16.5492 22.42 16.7002V16.7502ZM26.5 20.0002C26.3625 19.8772 26.1845 19.8092 26 19.8092C25.8155 19.8092 25.6375 19.8772 25.5 20.0002C25.3595 20.1408 25.2807 20.3315 25.2807 20.5302C25.2807 20.729 25.3595 20.9196 25.5 21.0602L26.7 22.2702C26.8428 22.4074 27.032 22.4859 27.23 22.4902C27.4288 22.49 27.6195 22.4109 27.76 22.2702C27.8308 22.2013 27.887 22.1188 27.9254 22.0278C27.9638 21.9368 27.9836 21.839 27.9836 21.7402C27.9836 21.6414 27.9638 21.5436 27.9254 21.4526C27.887 21.3616 27.8308 21.2792 27.76 21.2102L26.5 20.0002ZM26.66 5.27021L25.5 6.47021C25.3595 6.61083 25.2807 6.80146 25.2807 7.00021C25.2807 7.19896 25.3595 7.38958 25.5 7.53021C25.5689 7.60078 25.6514 7.65666 25.7425 7.69447C25.8336 7.73228 25.9314 7.75124 26.03 7.75021C26.2081 7.73601 26.375 7.65787 26.5 7.53021L27.7 6.33021C27.8325 6.18803 27.9046 5.99998 27.9012 5.80568C27.8977 5.61138 27.819 5.426 27.6816 5.28858C27.5442 5.15117 27.3588 5.07246 27.1645 5.06903C26.9702 5.0656 26.7822 5.13773 26.64 5.27021H26.66ZM30.5 13.0002H28.79C28.5911 13.0002 28.4003 13.0792 28.2597 13.2199C28.119 13.3605 28.04 13.5513 28.04 13.7502C28.04 13.9491 28.119 14.1399 28.2597 14.2805C28.4003 14.4212 28.5911 14.5002 28.79 14.5002H30.5C30.6989 14.5002 30.8897 14.4212 31.0303 14.2805C31.171 14.1399 31.25 13.9491 31.25 13.7502C31.25 13.5513 31.171 13.3605 31.0303 13.2199C30.8897 13.0792 30.6989 13.0002 30.5 13.0002Z" fill="#121B64"/>
</svg>
