<svg width="60" height="60" viewBox="0 0 60 60" fill="none" xmlns="http://www.w3.org/2000/svg">
<path d="M51.4839 10.8685C52.0153 10.8685 52.5639 10.8685 53.1981 10.9543C53.9646 11.016 54.6969 11.2976 55.3072 11.7653C55.9175 12.2331 56.3798 12.867 56.6387 13.591C56.8975 14.3151 56.9419 15.0984 56.7664 15.8471C56.591 16.5957 56.2032 17.2778 55.6496 17.8114C54.6511 18.7008 53.866 19.8039 53.3525 21.0385C52.8391 22.2732 52.6105 23.6077 52.6839 24.9428C55.3859 26.3549 57.4965 28.6835 58.6369 31.511C59.7773 34.3385 59.873 37.4798 58.9067 40.3714C58.2914 42.185 57.251 43.8249 55.8724 45.1543C54.1665 46.9301 51.9889 48.1817 49.5957 48.7617C47.2026 49.3418 44.6935 49.2262 42.3639 48.4285C39.84 47.5794 37.5999 46.0494 35.8907 44.0074C34.1815 41.9655 33.0698 39.491 32.6781 36.8571C31.8343 32.1226 32.5754 27.242 34.7867 22.9714V22.8343C40.0667 14.5371 45.1067 10.8685 51.4839 10.8685ZM52.1181 15.1714C48.3296 14.9828 44.061 16.2685 38.541 25.0457C36.808 28.4244 36.2071 32.2708 36.8267 36.0171C37.0829 37.9077 37.86 39.6898 39.0709 41.1642C40.2819 42.6385 41.879 43.747 43.6839 44.3657C45.2537 44.918 46.9504 45.0014 48.5668 44.6056C50.1833 44.2099 51.6495 43.3522 52.7867 42.1371C53.6824 41.2582 54.3528 40.1762 54.741 38.9828C55.4243 36.9219 55.2999 34.6784 54.393 32.7056C53.4862 30.7327 51.8644 29.1776 49.8553 28.3543C49.526 28.2224 49.2345 28.0108 49.0071 27.7386C48.7797 27.4663 48.6235 27.1418 48.5524 26.7943C48.1434 24.7131 48.2548 22.5631 48.8769 20.5354C49.499 18.5077 50.6124 16.6651 52.1181 15.1714ZM19.4439 10.8685C19.9924 10.8685 20.5239 10.8685 21.1581 10.9543C21.9246 11.016 22.6569 11.2976 23.2672 11.7653C23.8775 12.2331 24.3398 12.867 24.5987 13.591C24.8575 14.3151 24.9019 15.0984 24.7264 15.8471C24.551 16.5957 24.1632 17.2778 23.6096 17.8114C22.6111 18.7008 21.826 19.8039 21.3125 21.0385C20.7991 22.2732 20.5705 23.6077 20.6439 24.9428C23.3435 26.3575 25.4519 28.6864 26.5919 31.513C27.732 34.3396 27.8294 37.4796 26.8667 40.3714C26.261 42.1774 25.2392 43.8157 23.8839 45.1543C22.1738 46.9348 19.9902 48.1891 17.5906 48.7692C15.191 49.3494 12.6756 49.2312 10.341 48.4285C7.81517 47.5828 5.57302 46.0538 3.86332 44.0112C2.15362 41.9687 1.04321 39.4924 0.655284 36.8571C-0.188601 32.1226 0.552534 27.242 2.76385 22.9714C2.76075 22.9257 2.76075 22.8799 2.76385 22.8343C8.02671 14.5371 13.0839 10.8685 19.4439 10.8685ZM20.0953 15.1714C16.2896 14.9828 12.0381 16.2685 6.501 25.0457C4.75384 28.4198 4.15212 32.2708 4.78671 36.0171C4.77874 36.074 4.77874 36.1317 4.78671 36.1885C5.05377 38.0553 5.83738 39.8102 7.04906 41.2551C8.26073 42.7 9.85223 43.7774 11.6439 44.3657C13.2137 44.918 14.9104 45.0014 16.5268 44.6056C18.1433 44.2099 19.6095 43.3522 20.7467 42.1371C21.6308 41.2582 22.2844 40.1748 22.6496 38.9828C23.3328 36.9219 23.2085 34.6784 22.3016 32.7056C21.3948 30.7327 19.773 29.1776 17.7639 28.3543C17.4386 28.2188 17.1513 28.0059 16.9272 27.734C16.7031 27.462 16.549 27.1394 16.4781 26.7943C16.0725 24.7089 16.1906 22.5554 16.8218 20.527C17.4531 18.4985 18.5779 16.6583 20.0953 15.1714Z" fill="#686868"/>
<path d="M52.1181 15.1714C48.3296 14.9828 44.061 16.2685 38.541 25.0457C36.808 28.4244 36.2071 32.2708 36.8267 36.0171C37.0829 37.9077 37.86 39.6898 39.0709 41.1642C40.2819 42.6385 41.879 43.747 43.6839 44.3657C45.2537 44.918 46.9504 45.0014 48.5668 44.6056C50.1833 44.2099 51.6495 43.3522 52.7867 42.1371C53.6824 41.2582 54.3528 40.1762 54.741 38.9828C55.4243 36.9219 55.2999 34.6784 54.393 32.7056C53.4862 30.7327 51.8644 29.1776 49.8553 28.3543C49.526 28.2224 49.2345 28.0108 49.0071 27.7386C48.7797 27.4663 48.6235 27.1418 48.5524 26.7943C48.1434 24.7131 48.2548 22.5631 48.8769 20.5354C49.499 18.5077 50.6124 16.6651 52.1181 15.1714Z" fill="#686868"/>
<path d="M20.0953 15.1714C16.2896 14.9828 12.0381 16.2685 6.501 25.0457C4.75384 28.4198 4.15212 32.2708 4.78671 36.0171C4.77874 36.074 4.77874 36.1317 4.78671 36.1885C5.05377 38.0553 5.83738 39.8102 7.04906 41.2551C8.26073 42.7 9.85223 43.7774 11.6439 44.3657C13.2137 44.918 14.9104 45.0014 16.5268 44.6056C18.1433 44.2099 19.6095 43.3522 20.7467 42.1371C21.6308 41.2582 22.2844 40.1748 22.6496 38.9828C23.3328 36.9219 23.2085 34.6784 22.3016 32.7056C21.3948 30.7327 19.773 29.1776 17.7639 28.3543C17.4386 28.2188 17.1513 28.0059 16.9272 27.734C16.7031 27.462 16.549 27.1394 16.4781 26.7943C16.0725 24.7089 16.1906 22.5554 16.8218 20.527C17.4531 18.4985 18.5779 16.6583 20.0953 15.1714Z" fill="#686868"/>
</svg>
