<svg width="60" height="60" viewBox="0 0 60 60" fill="none" xmlns="http://www.w3.org/2000/svg">
<path d="M8.51602 49.1315C7.9846 49.1315 7.43602 49.1315 6.80174 49.0457C6.03531 48.984 5.30298 48.7024 4.69268 48.2347C4.08239 47.7669 3.62007 47.133 3.36122 46.409C3.10238 45.6849 3.05802 44.9016 3.23347 44.1529C3.40892 43.4043 3.79672 42.7222 4.35031 42.1886C5.34877 41.2992 6.1339 40.1961 6.64735 38.9615C7.1608 37.7268 7.38936 36.3923 7.31602 35.0572C4.61394 33.6451 2.5034 31.3165 1.36298 28.489C0.222567 25.6615 0.126908 22.5202 1.09317 19.6286C1.70845 17.815 2.74886 16.1751 4.12745 14.8457C5.83335 13.0699 8.01101 11.8183 10.4042 11.2383C12.7973 10.6582 15.3064 10.7738 17.636 11.5715C20.1598 12.4206 22.4 13.9506 24.1092 15.9926C25.8183 18.0345 26.9301 20.509 27.3217 23.1429C28.1656 27.8774 27.4245 32.758 25.2132 37.0286V37.1657C19.9332 45.4629 14.8932 49.1315 8.51602 49.1315ZM7.88174 44.8286C11.6703 45.0172 15.9389 43.7315 21.4589 34.9543C23.1918 31.5756 23.7928 27.7292 23.1732 23.9829C22.9169 22.0923 22.1399 20.3102 20.929 18.8358C19.718 17.3615 18.1208 16.253 16.316 15.6343C14.7462 15.082 13.0495 14.9986 11.4331 15.3944C9.81661 15.7901 8.35033 16.6478 7.21317 17.8629C6.31749 18.7418 5.64709 19.8238 5.25888 21.0172C4.57562 23.0781 4.69997 25.3216 5.60684 27.2944C6.5137 29.2673 8.13548 30.8224 10.1446 31.6457C10.4739 31.7776 10.7654 31.9892 10.9927 32.2614C11.2201 32.5337 11.3764 32.8582 11.4475 33.2057C11.8565 35.2869 11.745 37.4369 11.123 39.4646C10.5009 41.4923 9.3875 43.3349 7.88174 44.8286ZM40.556 49.1315C40.0075 49.1315 39.476 49.1315 38.8417 49.0457C38.0753 48.984 37.343 48.7024 36.7327 48.2347C36.1224 47.7669 35.6601 47.133 35.4012 46.409C35.1424 45.6849 35.098 44.9016 35.2735 44.1529C35.4489 43.4043 35.8367 42.7222 36.3903 42.1886C37.3888 41.2992 38.1739 40.1961 38.6874 38.9615C39.2008 37.7268 39.4294 36.3923 39.356 35.0572C36.6564 33.6425 34.548 31.3136 33.408 28.487C32.2679 25.6604 32.1705 22.5204 33.1332 19.6286C33.7389 17.8226 34.7607 16.1843 36.116 14.8457C37.8261 13.0652 40.0097 11.8109 42.4093 11.2308C44.8088 10.6506 47.3243 10.7688 49.6589 11.5715C52.1847 12.4172 54.4269 13.9462 56.1366 15.9888C57.8463 18.0313 58.9567 20.5076 59.3446 23.1429C60.1885 27.8774 59.4473 32.758 57.236 37.0286C57.2391 37.0743 57.2391 37.1201 57.236 37.1657C51.9732 45.4629 46.916 49.1315 40.556 49.1315ZM39.9046 44.8286C43.7103 45.0172 47.9617 43.7315 53.4989 34.9543C55.246 31.5802 55.8478 27.7292 55.2132 23.9829C55.2211 23.926 55.2211 23.8683 55.2132 23.8115C54.9461 21.9447 54.1625 20.1898 52.9508 18.7449C51.7391 17.3 50.1476 16.2226 48.356 15.6343C46.7862 15.082 45.0895 14.9986 43.4731 15.3944C41.8566 15.7901 40.3903 16.6478 39.2532 17.8629C38.3691 18.7418 37.7155 19.8252 37.3503 21.0172C36.667 23.0781 36.7914 25.3216 37.6983 27.2944C38.6051 29.2673 40.2269 30.8224 42.236 31.6457C42.5613 31.7812 42.8485 31.9941 43.0726 32.266C43.2967 32.538 43.4509 32.8606 43.5217 33.2057C43.9274 35.2911 43.8093 37.4446 43.178 39.473C42.5467 41.5015 41.422 43.3417 39.9046 44.8286Z" fill="#686868"/>
<path d="M7.88174 44.8286C11.6703 45.0172 15.9389 43.7315 21.4589 34.9543C23.1918 31.5756 23.7928 27.7292 23.1732 23.9829C22.9169 22.0923 22.1399 20.3102 20.929 18.8358C19.718 17.3615 18.1208 16.253 16.316 15.6343C14.7462 15.082 13.0495 14.9986 11.4331 15.3944C9.81661 15.7901 8.35033 16.6478 7.21317 17.8629C6.31749 18.7418 5.64709 19.8238 5.25888 21.0172C4.57562 23.0781 4.69997 25.3216 5.60684 27.2944C6.5137 29.2673 8.13548 30.8224 10.1446 31.6457C10.4739 31.7776 10.7654 31.9892 10.9927 32.2614C11.2201 32.5337 11.3764 32.8582 11.4475 33.2057C11.8565 35.2869 11.745 37.4369 11.123 39.4646C10.5009 41.4923 9.3875 43.3349 7.88174 44.8286Z" fill="#686868"/>
<path d="M39.9046 44.8286C43.7103 45.0172 47.9617 43.7315 53.4989 34.9543C55.246 31.5802 55.8478 27.7292 55.2132 23.9829C55.2211 23.926 55.2211 23.8683 55.2132 23.8115C54.9461 21.9447 54.1625 20.1898 52.9508 18.7449C51.7391 17.3 50.1476 16.2226 48.356 15.6343C46.7862 15.082 45.0895 14.9986 43.4731 15.3944C41.8566 15.7901 40.3903 16.6478 39.2532 17.8629C38.3691 18.7418 37.7155 19.8252 37.3503 21.0172C36.667 23.0781 36.7914 25.3216 37.6983 27.2944C38.6051 29.2673 40.2269 30.8224 42.236 31.6457C42.5613 31.7812 42.8485 31.9941 43.0726 32.266C43.2967 32.538 43.4509 32.8606 43.5217 33.2057C43.9274 35.2911 43.8093 37.4446 43.178 39.473C42.5467 41.5015 41.422 43.3417 39.9046 44.8286Z" fill="#686868"/>
</svg>
