<svg width="128" height="117" viewBox="0 0 128 117" fill="none" xmlns="http://www.w3.org/2000/svg">
<rect x="24" width="80" height="80" rx="16" fill="url(#paint0_linear_1_1503)"/>
<path fill-rule="evenodd" clip-rule="evenodd" d="M42.1069 39.5778C53.7677 34.4974 61.5434 31.1481 65.434 29.5298C76.5424 24.9095 78.8507 24.1069 80.3551 24.0804C80.686 24.0745 81.4259 24.1565 81.9051 24.5454C82.3098 24.8738 82.4212 25.3173 82.4744 25.6287C82.5277 25.94 82.5941 26.6492 82.5413 27.2033C81.9393 33.5283 79.3346 48.8772 78.0095 55.9613C77.4488 58.9588 76.3447 59.9638 75.2759 60.0622C72.953 60.276 71.1891 58.5271 68.9393 57.0523C65.4188 54.7446 63.4299 53.308 60.0126 51.0561C56.0634 48.4536 58.6235 47.0232 60.8742 44.6855C61.4632 44.0738 71.6978 34.7646 71.8959 33.9201C71.9207 33.8145 71.9437 33.4208 71.7098 33.2129C71.4759 33.005 71.1307 33.0761 70.8816 33.1326C70.5285 33.2128 64.9044 36.9301 54.0094 44.2846C52.413 45.3807 50.9671 45.9148 49.6715 45.8869C48.2433 45.856 45.496 45.0793 43.4537 44.4154C40.9487 43.6012 38.9578 43.1707 39.1311 41.7878C39.2214 41.0675 40.2133 40.3308 42.1069 39.5778Z" fill="white"/>
<path d="M8.05831 104.8L8.18631 104.128H9.53031L8.89031 107.376C8.84765 107.589 8.82631 107.771 8.82631 107.92C8.82631 108.283 8.96498 108.464 9.24231 108.464C9.47698 108.464 9.72231 108.288 9.97831 107.936C10.3943 107.371 10.6023 106.704 10.6023 105.936C10.6023 104.976 10.2716 104.139 9.61031 103.424C8.95965 102.709 8.01565 102.352 6.77831 102.352C5.85031 102.352 5.04498 102.587 4.36231 103.056C3.67965 103.515 3.18365 104.069 2.87431 104.72C2.56498 105.371 2.41031 106.053 2.41031 106.768C2.41031 107.653 2.64498 108.464 3.11431 109.2C3.58365 109.925 4.20765 110.432 4.98631 110.72C5.49831 110.901 6.09031 110.992 6.76231 110.992C7.78631 110.992 8.78365 110.816 9.75431 110.464L10.0583 111.68C9.04498 112.021 7.97831 112.192 6.85831 112.192C5.15165 112.192 3.79165 111.723 2.77831 110.784C2.21298 110.261 1.79165 109.648 1.51431 108.944C1.23698 108.229 1.09831 107.499 1.09831 106.752C1.09831 105.099 1.63698 103.755 2.71431 102.72C3.80231 101.675 5.15698 101.152 6.77831 101.152C8.34631 101.152 9.57298 101.611 10.4583 102.528C11.3436 103.445 11.7863 104.544 11.7863 105.824C11.7863 106.891 11.5143 107.781 10.9703 108.496C10.437 109.2 9.82898 109.552 9.14631 109.552C8.84765 109.552 8.58098 109.477 8.34631 109.328C8.12231 109.168 7.97831 108.944 7.91431 108.656C7.42365 109.339 6.76765 109.68 5.94631 109.68C5.30631 109.68 4.76765 109.461 4.33031 109.024C3.90365 108.576 3.69031 107.957 3.69031 107.168C3.69031 106.187 3.97298 105.408 4.53831 104.832C5.11431 104.256 5.75965 103.968 6.47431 103.968C7.21031 103.968 7.73831 104.245 8.05831 104.8ZM6.29831 108.32C6.66098 108.32 6.98631 108.155 7.27431 107.824C7.56231 107.493 7.70631 107.067 7.70631 106.544C7.70631 106.213 7.61565 105.936 7.43431 105.712C7.26365 105.477 7.00765 105.36 6.66631 105.36C6.26098 105.36 5.91431 105.531 5.62631 105.872C5.34898 106.203 5.21031 106.613 5.21031 107.104C5.21031 107.499 5.31698 107.803 5.53031 108.016C5.75431 108.219 6.01031 108.32 6.29831 108.32ZM17.0243 106.736H15.2323V112H13.2803V106.736H12.5443V105.072H13.2803V103.344C13.2803 103.013 13.2856 102.773 13.2963 102.624C13.307 102.475 13.3496 102.272 13.4243 102.016C13.5096 101.76 13.6323 101.52 13.7923 101.296C14.3683 100.528 15.291 100.144 16.5603 100.144C17.915 100.144 18.8483 100.528 19.3603 101.296C19.4136 101.381 19.4616 101.467 19.5043 101.552C19.5576 101.637 19.6003 101.728 19.6323 101.824C19.6643 101.909 19.691 101.989 19.7123 102.064C19.7443 102.128 19.7656 102.213 19.7763 102.32C19.787 102.416 19.7976 102.491 19.8083 102.544C19.819 102.587 19.8243 102.661 19.8243 102.768C19.835 102.875 19.8403 102.944 19.8403 102.976C19.8403 102.997 19.8403 103.061 19.8403 103.168V103.344V103.808H17.8883V103.392C17.8883 102.976 17.819 102.656 17.6803 102.432C17.4563 102.08 17.083 101.904 16.5603 101.904C16.0483 101.904 15.6803 102.08 15.4563 102.432C15.307 102.667 15.2323 102.987 15.2323 103.392V105.072H17.0243V106.736ZM17.8883 105.072H19.8403V112H17.8883V105.072ZM20.8054 112L24.1014 108.224L21.4454 105.072H23.9094L25.3174 106.864L26.7574 105.072H29.2214L26.5174 108.224L29.7974 112H27.3014L25.3174 109.584L23.3014 112H20.8054ZM35.6001 109.776L37.3921 110.064C37.3174 110.256 37.2161 110.448 37.0881 110.64C36.9707 110.821 36.7841 111.051 36.5281 111.328C36.2721 111.595 35.9254 111.813 35.4881 111.984C35.0507 112.144 34.5494 112.224 33.9841 112.224C32.8961 112.224 32.0107 111.899 31.3281 111.248C30.6027 110.565 30.2401 109.664 30.2401 108.544C30.2401 107.435 30.5921 106.528 31.2961 105.824C31.9574 105.173 32.8267 104.848 33.9041 104.848C35.0774 104.848 35.9787 105.227 36.6081 105.984C37.1627 106.645 37.4401 107.552 37.4401 108.704V108.864H32.2561C32.2561 109.333 32.3681 109.723 32.5921 110.032C32.9121 110.469 33.3761 110.688 33.9841 110.688C34.7094 110.688 35.2481 110.384 35.6001 109.776ZM32.3201 107.616H35.6001C35.5254 107.168 35.3281 106.827 35.0081 106.592C34.6987 106.347 34.3467 106.224 33.9521 106.224C33.5681 106.224 33.2161 106.347 32.8961 106.592C32.5867 106.837 32.3947 107.179 32.3201 107.616ZM44.2634 105.968V100.336H46.2154V112H44.2634V111.104C43.7408 111.851 43.0314 112.224 42.1354 112.224C41.0901 112.224 40.2368 111.867 39.5754 111.152C38.9248 110.437 38.5994 109.563 38.5994 108.528C38.5994 107.483 38.9194 106.608 39.5594 105.904C40.1994 105.2 41.0261 104.848 42.0394 104.848C43.0421 104.848 43.7834 105.221 44.2634 105.968ZM43.9114 107.136C43.5488 106.763 43.0901 106.576 42.5354 106.576C41.9808 106.576 41.5221 106.763 41.1594 107.136C40.7968 107.509 40.6154 107.973 40.6154 108.528C40.6154 109.083 40.7968 109.552 41.1594 109.936C41.5221 110.309 41.9808 110.496 42.5354 110.496C43.0901 110.496 43.5488 110.309 43.9114 109.936C44.2741 109.552 44.4554 109.083 44.4554 108.528C44.4554 107.973 44.2741 107.509 43.9114 107.136ZM48.3644 101.328H50.4444V112H48.3644V101.328ZM52.5921 112V105.072H54.5441V105.968C55.0774 105.221 55.7921 104.848 56.6881 104.848C57.5947 104.848 58.2774 105.131 58.7361 105.696C59.0987 106.144 59.2801 106.795 59.2801 107.648V112H57.3281V108.224C57.3281 107.573 57.2054 107.12 56.9601 106.864C56.7361 106.629 56.4321 106.512 56.0481 106.512C55.5147 106.512 55.1147 106.715 54.8481 107.12C54.6454 107.44 54.5441 107.888 54.5441 108.464V112H52.5921ZM60.0867 105.072H62.2627L64.0867 108.976L65.9107 105.072H68.0867L64.5987 112H63.5747L60.0867 105.072ZM73.8969 109.776L75.6889 110.064C75.6143 110.256 75.5129 110.448 75.3849 110.64C75.2676 110.821 75.0809 111.051 74.8249 111.328C74.5689 111.595 74.2223 111.813 73.7849 111.984C73.3476 112.144 72.8463 112.224 72.2809 112.224C71.1929 112.224 70.3076 111.899 69.6249 111.248C68.8996 110.565 68.5369 109.664 68.5369 108.544C68.5369 107.435 68.8889 106.528 69.5929 105.824C70.2543 105.173 71.1236 104.848 72.2009 104.848C73.3743 104.848 74.2756 105.227 74.9049 105.984C75.4596 106.645 75.7369 107.552 75.7369 108.704V108.864H70.5529C70.5529 109.333 70.6649 109.723 70.8889 110.032C71.2089 110.469 71.6729 110.688 72.2809 110.688C73.0063 110.688 73.5449 110.384 73.8969 109.776ZM70.6169 107.616H73.8969C73.8223 107.168 73.6249 106.827 73.3049 106.592C72.9956 106.347 72.6436 106.224 72.2489 106.224C71.8649 106.224 71.5129 106.347 71.1929 106.592C70.8836 106.837 70.6916 107.179 70.6169 107.616ZM81.9843 105.584L81.0243 106.72C80.6936 106.411 80.315 106.256 79.8883 106.256C79.6536 106.256 79.467 106.309 79.3283 106.416C79.2003 106.512 79.1363 106.645 79.1363 106.816C79.1363 107.093 79.3443 107.301 79.7603 107.44L80.2243 107.584C81.131 107.872 81.7176 108.203 81.9843 108.576C82.219 108.896 82.3363 109.28 82.3363 109.728C82.3363 110.432 82.0803 111.019 81.5683 111.488C81.035 111.979 80.3416 112.224 79.4883 112.224C78.411 112.224 77.515 111.84 76.8003 111.072L77.8243 109.888C78.283 110.421 78.795 110.688 79.3603 110.688C79.6376 110.688 79.867 110.624 80.0483 110.496C80.2296 110.357 80.3203 110.171 80.3203 109.936C80.3203 109.616 80.1176 109.381 79.7123 109.232L79.2643 109.072C78.571 108.827 78.075 108.549 77.7763 108.24C77.4243 107.867 77.2483 107.424 77.2483 106.912C77.2483 106.272 77.4883 105.749 77.9683 105.344C78.3843 105.013 78.987 104.848 79.7763 104.848C80.6083 104.848 81.3443 105.093 81.9843 105.584ZM87.0131 106.736H85.6691V112H83.7171V106.736H82.9491V105.072H83.7171V102.704H85.6691V105.072H87.0131V106.736ZM88.0296 112V105.072H89.9816V105.856C90.5149 105.184 91.2029 104.848 92.0456 104.848C93.0802 104.848 93.8109 105.269 94.2376 106.112C94.7602 105.269 95.5016 104.848 96.4616 104.848C97.2722 104.848 97.8962 105.131 98.3336 105.696C98.5362 105.963 98.6642 106.24 98.7176 106.528C98.7816 106.816 98.8136 107.189 98.8136 107.648V112H96.8616V108.224C96.8616 107.573 96.7549 107.12 96.5416 106.864C96.3496 106.629 96.0829 106.512 95.7416 106.512C95.2509 106.512 94.8936 106.715 94.6696 107.12C94.4882 107.419 94.3976 107.867 94.3976 108.464V112H92.4456V108.224C92.4456 107.573 92.3389 107.12 92.1256 106.864C91.9336 106.629 91.6669 106.512 91.3256 106.512C90.8349 106.512 90.4776 106.715 90.2536 107.12C90.0722 107.419 89.9816 107.867 89.9816 108.464V112H88.0296ZM105.678 109.776L107.47 110.064C107.396 110.256 107.294 110.448 107.166 110.64C107.049 110.821 106.862 111.051 106.606 111.328C106.35 111.595 106.004 111.813 105.566 111.984C105.129 112.144 104.628 112.224 104.062 112.224C102.974 112.224 102.089 111.899 101.406 111.248C100.681 110.565 100.318 109.664 100.318 108.544C100.318 107.435 100.67 106.528 101.374 105.824C102.036 105.173 102.905 104.848 103.982 104.848C105.156 104.848 106.057 105.227 106.686 105.984C107.241 106.645 107.518 107.552 107.518 108.704V108.864H102.334C102.334 109.333 102.446 109.723 102.67 110.032C102.99 110.469 103.454 110.688 104.062 110.688C104.788 110.688 105.326 110.384 105.678 109.776ZM102.398 107.616H105.678C105.604 107.168 105.406 106.827 105.086 106.592C104.777 106.347 104.425 106.224 104.03 106.224C103.646 106.224 103.294 106.347 102.974 106.592C102.665 106.837 102.473 107.179 102.398 107.616ZM109.03 112V105.072H110.982V105.968C111.515 105.221 112.23 104.848 113.126 104.848C114.032 104.848 114.715 105.131 115.174 105.696C115.536 106.144 115.718 106.795 115.718 107.648V112H113.766V108.224C113.766 107.573 113.643 107.12 113.398 106.864C113.174 106.629 112.87 106.512 112.486 106.512C111.952 106.512 111.552 106.715 111.286 107.12C111.083 107.44 110.982 107.888 110.982 108.464V112H109.03ZM120.872 106.736H119.528V112H117.576V106.736H116.808V105.072H117.576V102.704H119.528V105.072H120.872V106.736ZM126.625 105.584L125.665 106.72C125.334 106.411 124.956 106.256 124.529 106.256C124.294 106.256 124.108 106.309 123.969 106.416C123.841 106.512 123.777 106.645 123.777 106.816C123.777 107.093 123.985 107.301 124.401 107.44L124.865 107.584C125.772 107.872 126.358 108.203 126.625 108.576C126.86 108.896 126.977 109.28 126.977 109.728C126.977 110.432 126.721 111.019 126.209 111.488C125.676 111.979 124.982 112.224 124.129 112.224C123.052 112.224 122.156 111.84 121.441 111.072L122.465 109.888C122.924 110.421 123.436 110.688 124.001 110.688C124.278 110.688 124.508 110.624 124.689 110.496C124.87 110.357 124.961 110.171 124.961 109.936C124.961 109.616 124.758 109.381 124.353 109.232L123.905 109.072C123.212 108.827 122.716 108.549 122.417 108.24C122.065 107.867 121.889 107.424 121.889 106.912C121.889 106.272 122.129 105.749 122.609 105.344C123.025 105.013 123.628 104.848 124.417 104.848C125.249 104.848 125.985 105.093 126.625 105.584Z" fill="#686868"/>
<defs>
<linearGradient id="paint0_linear_1_1503" x1="64" y1="0" x2="64" y2="79.4067" gradientUnits="userSpaceOnUse">
<stop stop-color="#2AABEE"/>
<stop offset="1" stop-color="#229ED9"/>
</linearGradient>
</defs>
</svg>
